HIERARCHY
ROOT Hips
{
	OFFSET 0.00000 0.00000 0.00000
	CHANNELS 6 Xposition Yposition Zposition Zrotation Yrotation Xrotation 
	JOINT RightUpLegDummy
	{
		OFFSET 0 0 0
		CHANNELS 3 Zrotation Yrotation Xrotation
		JOINT RightUpLeg
		{
			OFFSET -3.52197 -3.41223 0.04002
			CHANNELS 3 Zrotation Yrotation Xrotation
			JOINT RightLeg
			{
				OFFSET -1.06336 -17.58347 1.60435
				CHANNELS 3 Zrotation Yrotation Xrotation
				JOINT RightFoot
				{
					OFFSET -0.27018 -17.05419 -1.63900
					CHANNELS 3 Zrotation Yrotation Xrotation
					JOINT RightToes
					{
						OFFSET 0.00298 -1.73825 3.34613
						CHANNELS 3 Zrotation Yrotation Xrotation
						End Site
						{
							OFFSET 0.00480 -0.05416 3.85043
						}
					}
				}
			}
		}
	}
	JOINT SpineDummy
	{
		OFFSET 0 0 0
		CHANNELS 3 Zrotation Yrotation Xrotation
		JOINT Spine
		{
			OFFSET 0.00000 4.14613 0.00000
			CHANNELS 3 Zrotation Yrotation Xrotation
			JOINT Spine1
			{
				OFFSET 0.00000 10.93369 0.05002
				CHANNELS 3 Zrotation Yrotation Xrotation
				JOINT HEadDummy
				{
					OFFSET 0 0 0
					CHANNELS 3 Zrotation Yrotation Xrotation
					JOINT Head
					{
						OFFSET 0.00000 5.52901 0.00438
						CHANNELS 3 Zrotation Yrotation Xrotation
						End Site
						{
							OFFSET -0.11417 7.29012 0.98962
						}
					}
				}
				JOINT LeftShoulder1Dummy
				{
					OFFSET 0 0 0
					CHANNELS 3 Zrotation Yrotation Xrotation
					JOINT LeftShoulder1
					{
						OFFSET 3.53937 -0.14262 -0.08662
						CHANNELS 3 Zrotation Yrotation Xrotation
						JOINT LeftArm
						{
							OFFSET 4.04833 -0.00133 0.12681
							CHANNELS 3 Zrotation Yrotation Xrotation
							JOINT LeftForeArm
							{
								OFFSET 9.67557 0.03289 -0.56117
								CHANNELS 3 Zrotation Yrotation Xrotation
								JOINT LeftHand
								{
									OFFSET 10.17679 0.06873 0.40307
									CHANNELS 3 Zrotation Yrotation Xrotation
									End Site
									{
										OFFSET 6.59293 -0.21483 0.59213
									}
								}
							}
						}
					}
				}
				JOINT RightShoulderDummy
				{
					OFFSET 0 0 0
					CHANNELS 3 Zrotation Yrotation Xrotation
					JOINT RightShoulder
					{
						OFFSET -3.53937 -0.14262 -0.08660
						CHANNELS 3 Zrotation Yrotation Xrotation
						JOINT RightArm
						{
							OFFSET -4.04833 -0.00132 0.12683
							CHANNELS 3 Zrotation Yrotation Xrotation
							JOINT RightForeArm
							{
								OFFSET -9.67570 0.03289 -0.56114
								CHANNELS 3 Zrotation Yrotation Xrotation
								JOINT RightHand
								{
									OFFSET -10.17679 0.06867 0.40304
									CHANNELS 3 Zrotation Yrotation Xrotation
									End Site
									{
										OFFSET -6.54841 -0.21495 0.59212
									}
								}
							}
						}
					}
				}
			}
		}
	}
	JOINT LeftUpLegDummy
	{
		OFFSET 0 0 0
		CHANNELS 3 Zrotation Yrotation Xrotation
		JOINT LeftUpLeg
		{
			OFFSET 3.52197 -3.41223 0.04002
			CHANNELS 3 Zrotation Yrotation Xrotation
			JOINT LeftLeg
			{
				OFFSET 1.08359 -17.35354 1.60336
				CHANNELS 3 Zrotation Yrotation Xrotation
				JOINT LeftFoot
				{
					OFFSET 0.24986 -17.28405 -1.63802
					CHANNELS 3 Zrotation Yrotation Xrotation
					JOINT LeftToes
					{
						OFFSET -0.01575 -1.73822 3.34610
						CHANNELS 3 Zrotation Yrotation Xrotation
						End Site
						{
							OFFSET 0.03150 -0.01868 3.85031
						}
					}
				}
			}
		}
	}
}
MOTION
Frames: 18
Frame Time: 0.033333
-2.9560 39.3784 9.6655 -178.0010 -34.8578 176.1280 0.0000 0.0000 0.0000 2.4788 -8.9905 -19.1100 5.4634 11.0517 29.7994 12.7095 1.0725 -18.0621 0.0000 0.0000 -0.0000 0.0000 0.0000 0.0000 -2.1301 5.1488 8.4477 -2.7430 6.4740 20.6051 0.0000 0.0000 0.0000 -0.7347 13.7966 -18.6449 0.0000 0.0000 0.0000 -14.2047 -5.2389 2.1603 3.1272 -46.0090 -55.1116 -155.5487 -89.9333 164.5464 21.3587 2.0434 -0.4841 0.0000 0.0000 0.0000 1.4364 1.9472 0.6160 85.0461 81.4503 45.9667 170.7198 89.4243 177.6842 -28.9916 4.8989 -2.3989 0.0000 0.0000 0.0000 5.6296 21.1742 -16.5949 -4.7545 -11.0231 28.2185 2.7681 -0.1710 -9.2215 -0.0000 0.0000 -0.0000
-3.5050 39.3153 10.0865 -178.6070 -35.1499 176.3770 0.0000 0.0000 0.0000 2.9121 -2.5944 -18.1887 5.1675 11.1042 28.7626 9.8673 0.9103 -18.1635 0.0000 0.0000 -0.0000 0.0000 0.0000 0.0000 -1.3413 4.6440 8.7376 -2.6488 6.0019 21.7436 0.0000 0.0000 0.0000 -1.5021 13.8844 -19.6630 0.0000 0.0000 0.0000 -16.3916 -5.3942 2.3932 -2.6487 -44.2352 -50.6500 -179.1624 -85.0830 -172.5651 21.8364 2.4201 -0.4248 0.0000 0.0000 0.0000 1.6619 1.9752 0.6318 74.5420 80.6570 37.8145 175.8204 88.2231 -178.0762 -28.9848 4.6635 -2.3397 0.0000 0.0000 0.0000 3.7993 22.1548 -17.3154 -5.4136 -11.4640 29.4977 3.9392 -0.1809 -9.4719 -0.0000 0.0000 -0.0000
-3.9971 39.1399 10.5074 -179.7000 -37.0138 177.2610 0.0000 0.0000 0.0000 1.1510 4.9362 -18.5411 1.8486 5.8629 29.7957 6.6556 0.6633 -17.6084 0.0000 0.0000 -0.0000 0.0000 0.0000 0.0000 -0.2918 3.4173 9.9144 -3.4311 5.0248 21.2068 0.0000 0.0000 0.0000 -2.2350 14.1063 -19.9905 0.0000 0.0000 0.0000 -18.4747 -5.5401 2.6217 -7.1712 -40.7430 -47.1036 -179.7848 -79.7060 -171.0470 22.3549 2.5736 -0.4054 0.0000 0.0000 0.0000 1.7330 1.9670 0.6349 67.2439 80.0456 32.2492 177.0254 87.4727 -176.8283 -28.0982 4.5234 -2.2302 0.0000 0.0000 0.0000 1.1281 23.2507 -19.4185 -7.2662 -12.9379 31.9784 7.2817 -0.2451 -9.1689 -0.0000 0.0000 -0.0000
-4.4233 38.9236 10.8917 178.3680 -40.3712 178.8840 0.0000 0.0000 0.0000 -1.9990 8.7580 -19.5800 -1.7477 0.5687 31.9759 5.3176 0.5452 -16.9654 0.0000 0.0000 -0.0000 0.0000 0.0000 0.0000 0.6258 1.6609 11.0261 -4.8386 3.6896 20.4879 0.0000 0.0000 0.0000 -3.2247 14.1698 -20.5113 0.0000 0.0000 0.0000 -19.8734 -5.6232 2.7750 -9.0732 -36.3221 -45.8228 179.9016 -74.8228 -169.0130 22.4857 2.6835 -0.3866 0.0000 0.0000 0.0000 1.5660 1.8676 0.6146 61.0462 80.0820 26.8569 178.6557 86.8629 -173.6905 -27.3664 4.3912 -2.1377 0.0000 0.0000 0.0000 -2.6655 25.9835 -22.9205 -11.7842 -16.5206 36.2174 9.7294 -0.4175 -7.0144 -0.0000 0.0000 -0.0000
-4.8473 38.7867 11.2061 176.7180 -43.9838 -179.4000 0.0000 0.0000 0.0000 -4.5071 8.3371 -20.3703 -3.8294 -2.0682 33.4890 4.3263 0.4680 -16.4963 0.0000 0.0000 -0.0000 0.0000 0.0000 0.0000 2.1848 0.0889 11.0585 -6.0454 2.5870 20.5337 0.0000 0.0000 0.0000 -4.4154 13.6443 -21.2926 0.0000 0.0000 0.0000 -20.0260 -5.4955 2.7546 -9.1795 -32.2205 -46.2773 179.8920 -71.0281 -168.4232 21.8955 2.9548 -0.3265 0.0000 0.0000 0.0000 1.4496 1.7755 0.5981 52.5598 80.2549 18.7350 179.9464 86.0523 -170.5753 -27.5992 4.1501 -2.0996 0.0000 0.0000 0.0000 -6.4649 30.9295 -27.6122 -17.9169 -19.9479 41.9393 5.7290 -0.3902 -3.8653 -0.0000 0.0000 -0.0000
-5.3420 38.7226 11.4263 176.2620 -46.5131 -178.4510 0.0000 0.0000 0.0000 -5.5628 7.1427 -20.6436 -4.7399 -3.1220 34.2577 2.5088 0.3818 -16.5314 0.0000 0.0000 -0.0000 0.0000 0.0000 0.0000 4.2089 -0.5547 10.1072 -6.4442 2.2154 20.6608 0.0000 0.0000 0.0000 -5.5266 12.5235 -21.2964 0.0000 0.0000 0.0000 -19.2726 -5.1945 2.6033 -8.6558 -29.1457 -47.3549 -179.9557 -68.4085 -169.5320 20.9861 3.3650 -0.2399 0.0000 0.0000 0.0000 1.6749 1.7644 0.6093 42.8540 79.7322 9.5790 -179.6745 85.1876 -169.3797 -27.8408 3.9454 -2.0701 0.0000 0.0000 0.0000 -8.7096 36.3418 -32.6006 -21.7122 -19.7642 47.4733 -3.2585 0.1332 -3.4078 -0.0000 0.0000 -0.0000
-5.8793 38.8253 11.5683 176.3460 -47.8258 -178.2650 0.0000 0.0000 0.0000 -6.1067 7.2920 -19.6183 -5.3993 -4.0067 33.5057 1.6485 0.3378 -16.4612 0.0000 0.0000 -0.0000 0.0000 0.0000 0.0000 5.2132 -0.2989 9.1873 -6.2519 2.4350 20.0387 0.0000 0.0000 0.0000 -6.3933 11.3396 -19.7191 0.0000 0.0000 0.0000 -18.4006 -4.8944 2.4463 -7.7190 -27.1666 -48.6006 -179.8337 -66.9241 -170.6721 20.4382 3.7321 -0.1702 0.0000 0.0000 0.0000 2.0519 1.8017 0.6343 37.1242 78.6035 4.4362 -179.6507 84.7256 -169.2055 -27.0989 4.0330 -2.0323 0.0000 0.0000 0.0000 -8.7684 40.5555 -35.8287 -21.2875 -17.3042 50.2216 -8.2043 0.2335 -6.5169 -0.0000 0.0000 -0.0000
-6.4169 39.0863 11.6757 176.4360 -48.8820 -178.6150 0.0000 0.0000 0.0000 -6.6329 7.7025 -17.1431 -5.8785 -4.9457 31.1020 2.5626 0.3643 -16.0100 0.0000 0.0000 -0.0000 0.0000 0.0000 0.0000 5.0262 0.1427 8.8296 -5.9244 2.6730 18.6839 0.0000 0.0000 0.0000 -7.0024 10.5944 -16.8737 0.0000 0.0000 0.0000 -17.7010 -4.6581 2.3254 -6.2944 -26.1021 -49.8274 -179.7837 -66.4822 -171.1557 20.2586 3.9309 -0.1348 0.0000 0.0000 0.0000 2.2400 1.8735 0.6529 36.7224 77.6262 4.1799 -179.4791 84.8948 -168.6635 -26.1680 4.3477 -2.0299 0.0000 0.0000 0.0000 -6.6968 42.6943 -36.0327 -17.5087 -14.9563 48.7076 -5.2049 -0.0748 -9.5023 -0.0000 0.0000 -0.0000
-6.9951 39.3192 11.7844 177.0610 -50.4581 -179.5510 0.0000 0.0000 0.0000 -6.7050 6.6699 -14.3203 -5.9269 -5.4464 28.4869 3.2458 0.3752 -15.5583 0.0000 0.0000 -0.0000 0.0000 0.0000 0.0000 4.9639 0.3467 8.6376 -5.4356 2.6021 17.0147 0.0000 0.0000 0.0000 -7.2786 10.2076 -13.6732 0.0000 0.0000 0.0000 -16.9328 -4.4035 2.1977 -4.8104 -26.1312 -50.5973 -179.6900 -66.9099 -172.1459 19.9306 4.0226 -0.1176 0.0000 0.0000 0.0000 2.2586 1.9965 0.6681 39.0816 77.0211 6.1849 -179.2115 85.4343 -168.0451 -26.2083 4.6046 -2.0912 0.0000 0.0000 0.0000 -2.8003 42.4126 -33.3411 -11.8945 -13.2804 42.2088 -0.1660 -0.1410 -9.4610 -0.0000 0.0000 -0.0000
-7.6412 39.4343 11.8958 178.1250 -52.2806 179.3790 0.0000 0.0000 0.0000 -6.5338 4.7634 -12.0577 -5.7061 -5.4442 26.6513 2.7060 0.3365 -15.1283 0.0000 0.0000 -0.0000 0.0000 0.0000 0.0000 5.2345 0.5781 8.0159 -4.7892 2.5583 15.5570 0.0000 0.0000 0.0000 -7.0366 9.6540 -10.7779 0.0000 0.0000 0.0000 -16.0197 -4.1585 2.0642 -3.7213 -27.7762 -50.6814 -179.5033 -68.2765 -173.9018 19.3271 4.0368 -0.1124 0.0000 0.0000 0.0000 2.2896 2.1815 0.6913 41.3843 76.3486 7.7361 -179.2267 85.8607 -168.2795 -26.9068 4.5897 -2.1460 0.0000 0.0000 0.0000 1.7541 40.4574 -28.8552 -6.5608 -12.3876 31.6116 2.0050 -0.1651 -7.2707 -0.0000 0.0000 -0.0000
-8.3455 39.4381 12.0110 179.3280 -53.5335 178.2340 0.0000 0.0000 0.0000 -6.4906 3.8622 -10.2256 -5.4671 -5.2604 25.5289 2.5410 0.3099 -14.6069 0.0000 0.0000 -0.0000 0.0000 0.0000 0.0000 5.6142 1.1953 6.9400 -4.5849 3.0869 14.8601 0.0000 0.0000 0.0000 -6.2486 8.7014 -8.4229 0.0000 0.0000 0.0000 -15.2668 -4.0399 1.9769 -2.8678 -31.0077 -50.4207 -179.3510 -70.7329 -174.8638 18.7874 3.8733 -0.1359 0.0000 0.0000 0.0000 2.4210 2.4320 0.7283 42.3579 75.2590 7.6183 -179.4897 85.9574 -169.0386 -27.5551 4.2871 -2.1285 0.0000 0.0000 0.0000 7.5426 35.3054 -22.6836 -2.5776 -9.3019 19.0236 3.2067 -0.2307 -5.3431 -0.0000 0.0000 -0.0000
-9.1389 39.2991 12.1891 -178.6840 -54.0507 176.1660 0.0000 0.0000 0.0000 -6.2972 4.3468 -8.4675 -5.2125 -4.9129 25.0520 3.5006 0.3323 -14.4140 0.0000 0.0000 -0.0000 0.0000 0.0000 0.0000 6.8163 1.9104 5.8249 -5.3227 4.0543 15.0576 0.0000 0.0000 0.0000 -5.2878 7.8736 -6.8300 0.0000 0.0000 0.0000 -14.8252 -3.9167 1.9146 -2.2124 -34.7791 -50.0856 -179.3669 -73.5749 -174.4662 18.4923 3.6114 -0.1752 0.0000 0.0000 0.0000 2.8163 2.6486 0.7784 42.6468 74.0194 6.9332 -179.7312 85.8157 -169.6849 -28.4082 3.8696 -2.0958 0.0000 0.0000 0.0000 16.3413 22.8305 -14.8676 -0.2037 1.1925 7.7580 4.2545 -0.3094 -4.1796 -0.0000 0.0000 -0.0000
-10.0096 39.0347 12.4660 -175.9980 -54.6241 173.5870 0.0000 0.0000 0.0000 -6.0669 5.1074 -6.9451 -4.8620 -4.3202 25.0475 4.2017 0.3784 -14.9101 0.0000 0.0000 -0.0000 0.0000 0.0000 0.0000 8.1568 2.1541 4.7743 -6.3285 4.5943 15.7796 0.0000 0.0000 0.0000 -4.5749 7.8195 -6.4818 0.0000 0.0000 0.0000 -14.6150 -3.5148 1.8075 -2.5648 -37.8906 -49.3493 -179.3751 -75.2664 -174.2339 18.3420 3.5131 -0.1892 0.0000 0.0000 0.0000 3.5707 2.6674 0.8281 43.4659 72.9711 7.3972 -179.9401 85.3154 -170.1990 -29.5937 3.6140 -2.1229 0.0000 0.0000 0.0000 19.8530 16.9073 -12.0985 1.7601 4.4906 2.3572 2.4041 -0.2057 -1.6835 -0.0000 0.0000 -0.0000
-10.8851 38.6731 12.8205 -174.0990 -55.8555 172.3000 0.0000 0.0000 0.0000 -6.6647 5.8735 -6.3021 -4.5595 -3.7302 25.6838 4.6993 0.4703 -16.1775 0.0000 0.0000 -0.0000 0.0000 0.0000 0.0000 7.5625 2.0261 3.5209 -6.0009 4.2567 16.7620 0.0000 0.0000 0.0000 -3.9965 8.2061 -7.8336 0.0000 0.0000 0.0000 -14.9496 -3.0230 1.7190 -4.3296 -40.1491 -47.9423 -179.3316 -75.0854 -174.3706 18.2150 3.5443 -0.1832 0.0000 0.0000 0.0000 4.3413 2.5808 0.8655 45.1457 71.5861 8.8786 -179.9122 84.0306 -169.8345 -30.0106 3.6179 -2.1552 0.0000 0.0000 0.0000 20.2458 17.1842 -13.1970 2.1656 2.4507 2.6018 -2.3867 0.3604 3.2681 -0.0000 0.0000 -0.0000
-11.6849 38.2554 13.2167 -174.3290 -57.1209 173.2180 0.0000 0.0000 0.0000 -8.5155 7.1722 -6.8764 -4.6883 -3.6994 27.6039 6.6388 0.6660 -17.6459 0.0000 0.0000 -0.0000 0.0000 0.0000 0.0000 4.7046 2.2071 2.4691 -4.3352 3.8728 18.1111 0.0000 0.0000 0.0000 -3.0879 7.9679 -10.6842 0.0000 0.0000 0.0000 -16.2945 -3.0642 1.8233 -6.2248 -42.2855 -46.3733 -179.5698 -74.1757 -172.7951 18.0811 3.3723 -0.2082 0.0000 0.0000 0.0000 4.5956 2.7176 0.8998 47.3331 69.0322 10.0160 -179.4961 82.1294 -167.8714 -28.7927 3.7760 -2.1027 0.0000 0.0000 0.0000 19.2977 18.7588 -15.9277 0.6044 0.7508 5.8677 -6.9956 1.3072 8.5407 -0.0000 0.0000 -0.0000
-12.3585 37.9353 13.6388 -176.0690 -57.0828 175.0210 0.0000 0.0000 0.0000 -10.7184 8.4033 -8.4895 -5.7358 -4.7233 31.0863 8.8174 0.7769 -17.5319 0.0000 0.0000 -0.0000 0.0000 0.0000 0.0000 2.1300 3.0264 2.6145 -3.8398 4.6759 19.5359 0.0000 0.0000 0.0000 -1.8484 6.8427 -14.0139 0.0000 0.0000 0.0000 -17.9164 -3.7165 2.1021 -7.0121 -44.8383 -45.3111 179.9997 -74.2240 -169.3880 18.0095 2.9878 -0.2659 0.0000 0.0000 0.0000 4.3439 3.1390 0.9402 50.0335 65.8420 10.9083 -179.1087 80.8815 -165.7289 -26.7770 3.9917 -1.9976 0.0000 0.0000 0.0000 16.6384 23.8702 -18.8781 -1.1992 -3.6104 10.4524 -8.0447 1.6802 10.6255 -0.0000 0.0000 -0.0000
-12.9257 37.8919 14.0813 -177.3150 -55.2070 175.8000 0.0000 0.0000 0.0000 -11.9498 8.3236 -10.9821 -7.6978 -6.4409 35.3918 7.6397 0.4657 -14.2766 0.0000 0.0000 -0.0000 0.0000 0.0000 0.0000 1.8859 4.0826 4.1293 -6.0019 6.6690 20.1667 0.0000 0.0000 0.0000 -0.8921 5.7979 -16.5179 0.0000 0.0000 0.0000 -18.1068 -4.2340 2.2499 -7.2991 -47.3593 -44.9987 179.6136 -75.4429 -166.6705 18.1113 2.7486 -0.3036 0.0000 0.0000 0.0000 4.1978 3.5004 0.9783 52.7571 63.8842 12.5145 -179.0270 81.3792 -165.3279 -25.2942 4.1067 -1.9067 0.0000 0.0000 0.0000 13.5164 30.8029 -20.8791 -1.9787 -9.1589 14.7633 -6.2812 1.2668 9.4580 -0.0000 0.0000 -0.0000
-13.4482 38.0728 14.4843 -177.4450 -52.1943 175.8110 0.0000 0.0000 0.0000 -11.9013 6.6514 -14.4253 -8.6847 -6.7918 39.1464 3.4244 0.1078 -9.6304 0.0000 0.0000 -0.0000 0.0000 0.0000 0.0000 2.6738 4.9309 5.5525 -8.6191 8.5282 19.8139 0.0000 0.0000 0.0000 -0.6608 5.8057 -17.3859 0.0000 0.0000 0.0000 -16.5952 -4.1035 2.0977 -7.4210 -48.9707 -45.8901 179.4534 -76.7116 -166.0172 18.2445 2.7717 -0.3043 0.0000 0.0000 0.0000 4.3706 3.5511 0.9971 54.3464 64.3639 14.5441 -178.9268 82.9254 -165.8248 -24.8225 4.0922 -1.8664 0.0000 0.0000 0.0000 13.0209 33.5253 -20.5017 -1.6291 -9.2221 16.7897 -5.2134 0.9607 7.6922 -0.0000 0.0000 -0.0000
